<svg width="52" height="52" viewBox="0 0 52 52" fill="none" xmlns="http://www.w3.org/2000/svg">
<path d="M26.7668 49.5321C28.4832 48.4403 30.2047 47.3536 31.9211 46.2618C32.698 45.7692 33.4852 45.2817 34.2418 44.7536C36.0039 43.5247 37.6543 42.1231 39.1168 40.5489C42.0215 37.4309 44.2355 33.729 45.6371 29.7071C46.7898 26.3911 47.2773 22.9075 47.2773 19.4036C47.2773 17.2098 47.2773 15.0161 47.2773 12.8223C47.2773 12.7614 47.2773 12.7055 47.2773 12.6446C47.2773 11.9641 46.8 11.37 46.1602 11.177C45.5406 10.9891 44.9262 10.7961 44.332 10.5473C44.4539 10.5981 44.5758 10.6489 44.6977 10.6997C44.0883 10.4407 43.4941 10.1411 42.9305 9.79576C42.6512 9.6231 42.377 9.44537 42.1078 9.2524C42.0367 9.20162 41.9707 9.15084 41.8996 9.10005C41.8691 9.07974 41.8438 9.05435 41.8133 9.03404C41.6863 8.93755 41.9961 9.1813 41.9758 9.16099C41.8539 9.04419 41.7066 8.94771 41.5797 8.84107C41.077 8.41959 40.6098 7.95748 40.173 7.46998C40.0664 7.35318 39.9648 7.2313 39.8633 7.10943C39.8074 7.04341 39.7566 6.9774 39.7008 6.91138C39.5535 6.72857 39.9242 7.21099 39.7363 6.95709C39.5383 6.69302 39.3504 6.42388 39.1727 6.14459C38.7613 5.50474 38.4059 4.82935 38.1113 4.12857C38.1621 4.25044 38.2129 4.37232 38.2637 4.49419C38.1113 4.12857 37.9691 3.75279 37.8473 3.37701C37.6391 2.73716 37.0703 2.25982 36.3797 2.25982C35.6891 2.25982 34.9984 2.25982 34.3078 2.25982C32.6523 2.25982 30.9918 2.25982 29.3363 2.25982C27.3406 2.25982 25.3449 2.25982 23.3492 2.25982C21.6176 2.25982 19.8859 2.25982 18.1543 2.25982C17.3164 2.25982 16.4734 2.23443 15.6355 2.25982C15.6254 2.25982 15.6102 2.25982 15.6 2.25982C14.9094 2.25982 14.3355 2.73716 14.1324 3.37701C14.0105 3.75787 13.8734 4.12857 13.716 4.49419C13.7668 4.37232 13.8176 4.25044 13.8684 4.12857C13.6094 4.73795 13.3047 5.33209 12.9594 5.89576C12.7867 6.17505 12.6039 6.44927 12.4109 6.71841C12.3602 6.78951 12.3094 6.85552 12.2586 6.92662C12.2383 6.95709 12.2129 6.98248 12.1926 7.01295C12.0961 7.1399 12.3398 6.83013 12.3195 6.85044C12.2027 6.96724 12.1063 7.11959 11.9996 7.24654C11.5781 7.74927 11.116 8.21646 10.6234 8.6481C10.5066 8.75474 10.3848 8.8563 10.2629 8.95279C10.1969 9.00865 10.1309 9.05943 10.0648 9.11021C9.88203 9.25748 10.3645 8.88677 10.1106 9.06959C9.84649 9.26763 9.57735 9.45552 9.29805 9.63326C8.65821 10.0446 7.98282 10.395 7.28203 10.6946C7.40391 10.6438 7.52578 10.593 7.64766 10.5422C7.04844 10.7911 6.43907 10.984 5.81953 11.1719C5.17461 11.3649 4.70235 11.959 4.70235 12.6395C4.70235 14.6809 4.70235 16.7223 4.70235 18.7637C4.70235 19.8403 4.70235 20.9169 4.77852 21.9934C4.93594 24.1364 5.30157 26.2743 5.90586 28.336C7.1043 32.429 9.16602 36.2122 11.9082 39.4723C14.0563 42.0215 16.641 44.0883 19.4492 45.8708C21.323 47.059 23.1969 48.2473 25.0707 49.4356C25.1164 49.4661 25.1672 49.4965 25.2129 49.527C25.8883 49.9536 26.9242 49.6895 27.2949 48.9786C27.691 48.227 27.4676 47.3485 26.7465 46.8965C24.8574 45.6981 22.9684 44.4997 21.0793 43.3012C20.8305 43.1438 20.5816 42.9864 20.3328 42.829C19.9418 42.5801 19.5508 42.3211 19.1699 42.052C18.9414 41.8895 18.7129 41.7219 18.4844 41.5544C18.3828 41.4782 18.2813 41.3969 18.1797 41.3208C18.6012 41.6407 18.1695 41.3106 18.068 41.2294C17.1844 40.5235 16.3465 39.7668 15.5543 38.9645C14.7773 38.1723 13.9902 37.3395 13.3402 36.4407C13.3453 36.4458 13.584 36.7606 13.4418 36.5676C13.3809 36.4864 13.3199 36.4102 13.259 36.329C13.1676 36.2071 13.0813 36.0852 12.9898 35.9633C12.8121 35.7196 12.6395 35.4758 12.4719 35.227C12.1215 34.709 11.7863 34.1809 11.4715 33.6376C10.8367 32.5559 10.2781 31.4336 9.79063 30.2809C9.84141 30.4028 9.89219 30.5247 9.94297 30.6465C8.95274 28.2954 8.27735 25.8274 7.93711 23.2985C7.95743 23.4356 7.97266 23.5676 7.99297 23.7047C7.77461 22.0594 7.73907 20.4141 7.73907 18.7637C7.73907 17.159 7.73907 15.5544 7.73907 13.9497C7.73907 13.5129 7.73907 13.0813 7.73907 12.6446C7.36836 13.1321 6.99258 13.6247 6.62188 14.1122C8.33321 13.5993 9.97852 12.9086 11.4359 11.8626C13.127 10.6489 14.5641 9.13052 15.6355 7.34302C16.2297 6.35279 16.702 5.2813 17.0523 4.18443C16.5648 4.55513 16.0723 4.93091 15.5848 5.30162C16.2754 5.30162 16.966 5.30162 17.6566 5.30162C19.3121 5.30162 20.9727 5.30162 22.6281 5.30162C24.6238 5.30162 26.6195 5.30162 28.6152 5.30162C30.3469 5.30162 32.0785 5.30162 33.8102 5.30162C34.6481 5.30162 35.491 5.32701 36.3289 5.30162C36.3391 5.30162 36.3543 5.30162 36.3645 5.30162C35.877 4.93091 35.3844 4.55513 34.8969 4.18443C36.1563 8.04888 38.9746 11.3751 42.6563 13.1067C43.5297 13.518 44.4336 13.8379 45.3578 14.1122C44.9871 13.6247 44.6113 13.1321 44.2406 12.6446C44.2406 13.7821 44.2406 14.9196 44.2406 16.0571C44.2406 17.3215 44.2406 18.586 44.2406 19.8454C44.2406 21.1352 44.1543 22.4251 43.9867 23.7047C44.007 23.5676 44.0223 23.4356 44.0426 23.2985C43.6973 25.8223 43.0219 28.2954 42.0367 30.6465C42.0875 30.5247 42.1383 30.4028 42.1891 30.2809C41.3207 32.3325 40.2188 34.2825 38.8984 36.0852C38.8223 36.1868 38.7512 36.2883 38.675 36.3848C38.6039 36.4813 38.3094 36.8419 38.6395 36.4356C38.4516 36.6692 38.2637 36.9079 38.0758 37.1415C37.7203 37.568 37.3547 37.9844 36.9789 38.3907C36.2223 39.2032 35.4148 39.9751 34.5668 40.6961C34.3535 40.879 34.1352 41.0567 33.9168 41.2294C33.8152 41.3106 33.7137 41.3868 33.6172 41.468C34.0336 41.1329 33.5969 41.4833 33.5004 41.5544C33.0484 41.8946 32.5863 42.2196 32.1141 42.5294C31.8094 42.7274 31.5047 42.9254 31.1949 43.1184C30.0879 43.8192 28.9809 44.52 27.8738 45.2258C26.9953 45.7844 26.1168 46.3379 25.2383 46.8965C24.568 47.3231 24.2328 48.2727 24.6898 48.9786C25.1164 49.659 26.0508 49.9891 26.7668 49.5321Z" fill="black"/>
<path d="M16.0113 25.5328C17.748 27.2695 19.4848 29.0062 21.2266 30.748C21.4754 30.9968 21.7242 31.2457 21.968 31.4894C22.552 32.0734 23.5371 32.0734 24.1211 31.4894C25.4617 30.1488 26.8074 28.8031 28.148 27.4625C30.2707 25.3398 32.3984 23.2121 34.5211 21.0894C35.0086 20.6019 35.5012 20.1093 35.9887 19.6218C36.5523 19.0582 36.593 18.0222 35.9887 17.4687C35.3793 16.9101 34.4348 16.8644 33.8355 17.4687C32.4949 18.8093 31.1492 20.1551 29.8086 21.4957C27.6859 23.6183 25.5582 25.7461 23.4355 27.8687C22.948 28.3562 22.4555 28.8488 21.968 29.3363C22.684 29.3363 23.4051 29.3363 24.1211 29.3363C22.3844 27.5996 20.6477 25.8629 18.9059 24.1211C18.657 23.8722 18.4082 23.6234 18.1645 23.3797C17.6008 22.816 16.5648 22.7754 16.0113 23.3797C15.4527 23.984 15.407 24.9285 16.0113 25.5328Z" fill="black"/>
</svg>
