<svg width="61" height="47" viewBox="0 0 61 47" fill="none" xmlns="http://www.w3.org/2000/svg">
<path d="M54.4877 41.6135C54.311 41.6135 54.1382 41.6657 53.9913 41.7636C53.8443 41.8615 53.7298 42.0007 53.6622 42.1635C53.5945 42.3263 53.5768 42.5054 53.6113 42.6782C53.6458 42.8511 53.7309 43.0098 53.8559 43.1344C53.9808 43.259 54.14 43.3439 54.3134 43.3783C54.4867 43.4127 54.6664 43.395 54.8296 43.3276C54.9929 43.2601 55.1325 43.1459 55.2307 42.9994C55.3288 42.8529 55.3813 42.6806 55.3813 42.5044C55.3813 42.3874 55.3581 42.2716 55.3132 42.1635C55.2683 42.0554 55.2025 41.9571 55.1195 41.8744C55.0366 41.7917 54.9381 41.726 54.8297 41.6813C54.7212 41.6365 54.605 41.6135 54.4877 41.6135ZM58.3193 25.6862H57.544V18.9117C57.5431 18.0456 57.1976 17.2152 56.5834 16.6028C55.9691 15.9903 55.1363 15.6458 54.2677 15.6449H47.2283V6.09013C47.2273 5.224 46.8819 4.39361 46.2676 3.78116C45.6534 3.16871 44.8206 2.82421 43.952 2.82324H3.27637C2.40772 2.82421 1.57493 3.16871 0.960698 3.78116C0.346471 4.39361 0.000971256 5.224 0 6.09013L0 34.9752C0.000971256 35.8413 0.346471 36.6717 0.960698 37.2842C1.57493 37.8966 2.40772 38.2411 3.27637 38.2421H14.8525C15.0285 39.3427 14.8289 40.4703 14.2856 41.4443L12.7258 44.2227C12.5687 44.5025 12.4877 44.8184 12.4909 45.139C12.4941 45.4597 12.5813 45.7739 12.744 46.0506C12.9066 46.3272 13.139 46.5566 13.418 46.716C13.697 46.8754 14.013 46.9593 14.3346 46.9593H22.171C22.2109 46.959 22.2507 46.9561 22.2902 46.9505C22.3658 46.9557 22.4418 46.9593 22.5187 46.9593H58.3193C59.03 46.9585 59.7114 46.6766 60.214 46.1755C60.7165 45.6744 60.9992 44.995 61 44.2864V28.3592C60.9992 27.6505 60.7165 26.9711 60.214 26.47C59.7114 25.9689 59.03 25.6871 58.3193 25.6862ZM54.2677 17.4268C54.6625 17.4272 55.0411 17.5838 55.3203 17.8622C55.5994 18.1406 55.7565 18.518 55.7569 18.9117V25.6862H53.6948V20.374C53.6948 20.2569 53.6717 20.1411 53.6268 20.033C53.5819 19.9249 53.5161 19.8267 53.4331 19.7439C53.3501 19.6612 53.2516 19.5956 53.1432 19.5508C53.0348 19.506 52.9186 19.483 52.8012 19.483H26.0742C25.9569 19.483 25.8407 19.506 25.7323 19.5508C25.6239 19.5956 25.5254 19.6612 25.4424 19.7439C25.3594 19.8267 25.2936 19.9249 25.2487 20.033C25.2038 20.1411 25.1807 20.2569 25.1807 20.374V37.7864C25.1807 37.9034 25.2038 38.0192 25.2487 38.1273C25.2936 38.2354 25.3594 38.3337 25.4424 38.4164C25.5254 38.4991 25.6239 38.5648 25.7323 38.6095C25.8407 38.6543 25.9569 38.6774 26.0742 38.6773H47.9753V40.7335H23.1185V18.9117C23.119 18.518 23.276 18.1406 23.5552 17.8622C23.8344 17.5838 24.2129 17.4272 24.6078 17.4268L54.2677 17.4268ZM1.78711 6.09013C1.78755 5.69643 1.9446 5.31899 2.22379 5.0406C2.50299 4.76222 2.88153 4.60562 3.27637 4.60518H43.952C44.3468 4.60562 44.7253 4.76222 45.0045 5.0406C45.2837 5.31899 45.4408 5.69643 45.4412 6.09013V15.6449H24.6078C23.7391 15.6458 22.9063 15.9903 22.2921 16.6028C21.6779 17.2152 21.3324 18.0456 21.3314 18.9117V29.8275H1.78711V6.09013ZM3.27637 36.4601C2.88153 36.4597 2.50299 36.3031 2.22379 36.0247C1.9446 35.7463 1.78755 35.3689 1.78711 34.9752V31.6095H21.3314V36.4601H15.5775C15.5745 36.4601 15.5715 36.4601 15.5684 36.4601H3.27637ZM19.2423 41.9716V43.6924C19.242 44.2089 19.3652 44.718 19.6018 45.1774H14.3346C14.3247 45.1774 14.315 45.1748 14.3064 45.1699C14.2978 45.165 14.2907 45.1579 14.2857 45.1494C14.2807 45.1409 14.278 45.1312 14.2779 45.1213C14.2778 45.1115 14.2803 45.1017 14.2852 45.0931L15.845 42.3147C16.5363 41.0753 16.8197 39.6507 16.6551 38.2421H21.3314V40.7335H20.4841C20.1549 40.7339 19.8393 40.8644 19.6065 41.0965C19.3737 41.3286 19.2427 41.6434 19.2423 41.9716ZM22.5187 45.1774C22.1238 45.1769 21.7453 45.0203 21.4661 44.7419C21.1869 44.4636 21.0299 44.0861 21.0294 43.6924V42.5155H47.9753V44.2864C47.9752 44.59 48.0272 44.8913 48.129 45.1774H22.5187ZM47.9753 28.3592V36.8954H26.9678V21.2649H51.9077V25.6862H50.656C49.9453 25.6871 49.2639 25.9689 48.7614 26.47C48.2588 26.9711 47.9761 27.6505 47.9753 28.3592ZM59.2129 44.2864C59.2126 44.5226 59.1184 44.7491 58.9509 44.9161C58.7834 45.0832 58.5562 45.1771 58.3193 45.1774H50.656C50.4191 45.1771 50.192 45.0832 50.0244 44.9161C49.8569 44.7491 49.7627 44.5226 49.7624 44.2864V28.3592C49.7627 28.1229 49.8569 27.8965 50.0244 27.7294C50.192 27.5624 50.4191 27.4684 50.656 27.4682H52.7088C52.7703 27.4745 52.8322 27.4745 52.8936 27.4682H56.5581C56.6195 27.4745 56.6815 27.4745 56.7429 27.4682H58.3193C58.5562 27.4684 58.7834 27.5624 58.9509 27.7294C59.1184 27.8965 59.2126 28.1229 59.2129 28.3592V44.2864Z" fill="#272A33"/>
</svg>
