<svg width="57" height="44" viewBox="0 0 57 44" fill="none" xmlns="http://www.w3.org/2000/svg">
<path d="M53.8772 35.5304H52.2936V4.22145C52.2936 1.91057 50.4133 0.0302734 48.1024 0.0302734H8.89816C6.58728 0.0302734 4.70698 1.91057 4.70698 4.22145V35.5304H3.12342C2.26211 35.5304 1.58571 36.285 1.68639 37.1447C2.07563 40.4653 4.89403 42.9698 8.24247 42.9698H48.7581C52.1053 42.9698 54.9237 40.4657 55.3138 37.1447C55.3617 36.7358 55.2319 36.3241 54.9573 36.0159C54.6831 35.7077 54.2893 35.5304 53.8772 35.5304ZM6.38345 4.22145C6.38345 2.83476 7.51147 1.70674 8.89816 1.70674H48.1024C49.4891 1.70674 50.6171 2.83476 50.6171 4.22145V35.5296H6.38345V4.22145ZM48.7581 41.2933H8.24247C5.83172 41.2933 3.78893 39.5542 3.38864 37.2069H53.6115C53.2104 39.5542 51.1681 41.2933 48.7581 41.2933Z" fill="black"/>
<path d="M47.2843 3.98767H9.71429C9.25138 3.98767 8.87605 4.36299 8.87605 4.82591V32.4119C8.87605 32.8753 9.25138 33.2502 9.71429 33.2502H47.2843C47.7472 33.2502 48.1225 32.8753 48.1225 32.4119V4.82591C48.1225 4.36299 47.7472 3.98767 47.2843 3.98767ZM46.446 31.5737H10.5525V5.66414H46.446V31.5737ZM25.8806 40.0883H31.1196C31.5825 40.0883 31.9578 39.7129 31.9578 39.25C31.9578 38.7871 31.5825 38.4118 31.1196 38.4118H25.8806C25.4177 38.4118 25.0424 38.7871 25.0424 39.25C25.0424 39.7129 25.4177 40.0883 25.8806 40.0883Z" fill="black"/>
<path d="M22.0711 25.1474C21.8808 25.3005 21.6237 25.4888 21.3065 25.7081C20.9255 25.9734 20.6111 26.2091 20.3725 26.4072C20.1241 26.6135 19.9092 26.8566 19.734 27.1292C19.5478 27.419 19.4532 27.7399 19.4532 28.0837C19.4532 28.2777 19.5151 28.4406 19.637 28.5675C19.7598 28.6968 19.9227 28.7648 20.1085 28.7648H23.2003C23.3596 28.7648 23.5016 28.7042 23.6105 28.5904C23.7201 28.4782 23.7758 28.3366 23.7758 28.1705C23.7758 28.0059 23.7214 27.8643 23.615 27.7505C23.5057 27.6302 23.3624 27.5672 23.2003 27.5672H20.8555C20.8882 27.5336 20.9234 27.5009 20.9615 27.4681C21.1469 27.3068 21.4248 27.0924 21.7883 26.8296C22.2033 26.5382 22.5455 26.2787 22.8058 26.056C23.0788 25.8236 23.3166 25.5485 23.5122 25.2391C23.7193 24.9117 23.8245 24.5515 23.8245 24.17C23.8245 23.7812 23.7308 23.4316 23.5458 23.1329C23.36 22.8316 23.1062 22.595 22.791 22.4297C22.4771 22.2668 22.1272 22.1841 21.751 22.1841C21.0745 22.1841 20.4376 22.3421 19.8548 22.6564C19.6677 22.767 19.565 22.9511 19.565 23.1762C19.565 23.3334 19.6153 23.4677 19.7144 23.5749C19.8785 23.7534 20.1368 23.7935 20.3529 23.678C20.7511 23.4873 21.1784 23.3899 21.6225 23.3899C22.0015 23.3899 22.2721 23.4652 22.4264 23.6142C22.5815 23.764 22.6568 23.9654 22.6568 24.2298C22.6568 24.3878 22.606 24.5408 22.5066 24.6857C22.3924 24.8494 22.2459 25.005 22.0711 25.1474ZM28.6399 26.0814H28.2629V22.9601C28.2629 22.7604 28.1999 22.5877 28.0746 22.4452C27.9437 22.3012 27.7726 22.2275 27.5667 22.2275H27.4067C27.2896 22.2275 27.1766 22.2553 27.0714 22.3094C26.9671 22.3634 26.8787 22.4412 26.8185 22.5304L24.3046 25.993C24.2109 26.1191 24.1634 26.2705 24.1634 26.4416V26.5202C24.1634 26.7199 24.2309 26.891 24.3631 27.0293C24.4978 27.1718 24.6644 27.2438 24.8588 27.2438H27.0706V28.1877C27.0706 28.3587 27.1267 28.5053 27.2372 28.6215C27.3502 28.7435 27.4975 28.8073 27.6629 28.8073C27.827 28.8073 27.9748 28.7443 28.089 28.6248C28.2044 28.5061 28.2629 28.3587 28.2629 28.1877V27.2438H28.6399C28.7925 27.2438 28.9301 27.1849 29.0377 27.0735C29.1433 26.9655 29.1994 26.8247 29.1994 26.6667C29.1994 26.5112 29.1449 26.3704 29.0418 26.2591C28.9337 26.1428 28.795 26.0814 28.6399 26.0814ZM27.0706 26.0814H25.6225L27.0706 24.0669V26.0814ZM31.7153 21.8256C31.6302 21.8992 31.5692 21.9926 31.5348 22.1031L29.4114 28.8032C29.3881 28.8794 29.3774 28.9416 29.3774 28.9997C29.3774 29.156 29.4278 29.2919 29.5272 29.4041C29.632 29.5228 29.7736 29.585 29.9369 29.585C30.0732 29.585 30.1919 29.5432 30.2914 29.4589C30.3749 29.3844 30.435 29.2911 30.4698 29.1822L32.5932 22.4829C32.6166 22.4068 32.6272 22.3446 32.6272 22.2864C32.6272 22.1301 32.5769 21.9942 32.4774 21.8821C32.2859 21.6668 31.9298 21.6398 31.7153 21.8256ZM33.1802 22.4608C33.075 22.5795 33.0218 22.7203 33.0218 22.8816C33.0218 23.0453 33.0766 23.1869 33.1851 23.3048C33.298 23.4243 33.4368 23.4849 33.5972 23.4849H36.1422L34.0921 27.884C34.0466 27.983 34.0237 28.0853 34.0237 28.1877C34.0237 28.3563 34.079 28.502 34.1891 28.6215C34.302 28.7435 34.449 28.8073 34.6147 28.8073C34.8299 28.8073 35.0521 28.6852 35.171 28.4561L37.4475 23.43C37.5126 23.2745 37.5453 23.1165 37.5453 22.9601C37.5453 22.7653 37.4802 22.6 37.3513 22.469L37.3505 22.4673C37.2195 22.3364 37.0566 22.2701 36.8663 22.2701H33.5972C33.4343 22.2701 33.2944 22.3339 33.1802 22.4608ZM28.4993 20.5343C32.2816 20.5343 35.3586 17.4568 35.3586 13.6745C35.3586 9.89218 32.2816 6.8147 28.4993 6.8147C24.717 6.8147 21.6395 9.89218 21.6395 13.6745C21.6395 17.4568 24.717 20.5343 28.4993 20.5343ZM28.4993 8.49117C31.357 8.49117 33.6822 10.8168 33.6822 13.6745C33.6822 16.5322 31.357 18.8578 28.4993 18.8578C25.6412 18.8578 23.316 16.5322 23.316 13.6745C23.316 10.8168 25.6412 8.49117 28.4993 8.49117Z" fill="black"/>
<path d="M25.1541 15.5364C25.3072 15.8118 25.5929 15.9674 25.8872 15.9674C26.0251 15.9674 26.1651 15.933 26.294 15.8609L27.661 15.1005V16.5256C27.661 16.989 28.0364 17.3639 28.4993 17.3639C28.9622 17.3639 29.3375 16.989 29.3375 16.5256V15.1005L30.7041 15.8609C30.8331 15.933 30.973 15.9674 31.111 15.9674C31.4053 15.9674 31.6909 15.8118 31.844 15.5364C32.0695 15.1316 31.9238 14.6216 31.5195 14.3965L30.2226 13.6745L31.5195 12.9525C31.9238 12.7274 32.0695 12.2174 31.844 11.8126C31.6193 11.4078 31.1085 11.2629 30.7041 11.488L29.3375 12.2485V10.8233C29.3375 10.36 28.9622 9.98511 28.4993 9.98511C28.0364 9.98511 27.661 10.36 27.661 10.8233V12.2485L26.294 11.488C25.8904 11.2629 25.3792 11.4078 25.1541 11.8126C24.9286 12.2174 25.0743 12.7274 25.4787 12.9525L26.7755 13.6745L25.4787 14.3965C25.0743 14.6216 24.9286 15.1316 25.1541 15.5364Z" fill="black"/>
</svg>
