<svg width="34" height="50" viewBox="0 0 34 50" fill="none" xmlns="http://www.w3.org/2000/svg">
<mask id="mask0_492_1368" style="mask-type:luminance" maskUnits="userSpaceOnUse" x="15" y="0" width="19" height="17">
<path d="M15.824 0H33.0659V16.5193H15.824V0Z" fill="white"/>
</mask>
<g mask="url(#mask0_492_1368)">
<path d="M17.0756 16.0776C18.3017 13.8485 21.549 8.92945 28.1538 4.61392C22.3616 7.29202 18.1163 12.9472 16.5479 15.2746C14.7818 11.5289 14.897 4.17337 33.0667 0C31.9985 14.8521 21.4181 17.7443 17.0756 16.0776Z" fill="#5D9830"/>
</g>
<path d="M14.8045 16.2461C14.069 14.9087 12.1208 11.9569 8.15817 9.36818C11.6331 10.9747 14.1802 14.3676 15.1215 15.7645C16.1807 13.5168 16.1121 9.10352 5.20978 6.59961C5.85093 15.5105 12.1995 17.2463 14.8045 16.2461Z" fill="#5D9830"/>
<path d="M23.897 26.1068C24.2482 26.4625 24.5826 26.8317 24.8961 27.2205C25.1063 27.4801 24.7416 27.0048 24.9355 27.2739C24.9928 27.3526 25.0506 27.4318 25.1074 27.5116C25.2749 27.7504 25.4339 27.9943 25.5862 28.2432C25.8362 28.6529 26.0649 29.076 26.27 29.5104C26.324 29.6256 26.3768 29.7413 26.4279 29.8576C26.3931 29.7778 26.3009 29.521 26.4397 29.8953C26.5279 30.1324 26.6167 30.3678 26.6948 30.6089C26.8409 31.0562 26.9634 31.5119 27.0623 31.9727C27.109 32.1868 27.1472 32.4026 27.1854 32.6183C27.2579 33.019 27.2034 32.7155 27.1927 32.6307C27.2118 32.7858 27.2281 32.9409 27.2421 33.0965C27.3275 34.0591 27.3135 35.0329 27.1927 35.9927C27.2472 35.5577 27.1359 36.2865 27.1196 36.3742C27.0775 36.59 27.0303 36.8041 26.9786 37.017C26.8589 37.5065 26.7128 37.9886 26.5397 38.4612C26.4965 38.5797 26.4504 38.6977 26.4043 38.8157C26.2863 39.1209 26.5251 38.5539 26.3891 38.8523C26.297 39.0551 26.2026 39.2574 26.1014 39.4558C25.8688 39.9143 25.6103 40.3604 25.3265 40.7892C25.1827 41.0061 25.0327 41.2191 24.8776 41.4281C25.0658 41.1752 24.7017 41.6394 24.6438 41.7074C24.2971 42.1142 23.9268 42.5008 23.5352 42.8649C23.3407 43.0459 23.1412 43.2206 22.9367 43.3903C22.8608 43.4533 22.7844 43.5162 22.7069 43.5769C22.9581 43.3796 22.6951 43.5825 22.6513 43.6128C22.2242 43.9067 21.7977 44.1944 21.3448 44.449C21.1217 44.5743 20.8953 44.6934 20.6654 44.8058C20.58 44.8479 20.4935 44.889 20.407 44.9288C20.3597 44.9508 19.9956 45.1103 20.2153 45.0176C20.435 44.9249 20.0687 45.0733 20.0198 45.0924C19.931 45.1261 19.8422 45.1592 19.7529 45.1907C19.4865 45.2862 19.2162 45.3733 18.9437 45.452C18.4919 45.5824 18.0334 45.6891 17.5704 45.7723C17.4473 45.7942 17.3237 45.8133 17.2001 45.8335C17.2832 45.8201 17.594 45.7925 17.1866 45.833C16.9382 45.8583 16.6899 45.8807 16.4404 45.8942C15.9729 45.9195 15.5048 45.9212 15.0373 45.8987C14.8187 45.8886 14.6006 45.8729 14.3832 45.8521C14.259 45.8403 14.1348 45.8274 14.0106 45.8116C14.4214 45.8628 13.9876 45.8026 13.9061 45.788C12.9458 45.6228 12.0018 45.3559 11.0988 44.9884C11.45 45.1311 10.7931 44.8423 10.7183 44.8058C10.5177 44.7075 10.3194 44.6041 10.1233 44.4956C9.67093 44.2456 9.2332 43.9697 8.81232 43.669C8.77411 43.6421 8.44876 43.4016 8.62576 43.537C8.78535 43.6584 8.53024 43.4589 8.52349 43.4533C8.32008 43.2836 8.11779 43.1127 7.92224 42.9335C7.52777 42.5716 7.1541 42.1878 6.80458 41.7832C6.75064 41.7209 6.31347 41.1685 6.5062 41.4281C6.37022 41.2455 6.23873 41.0595 6.11174 40.8701C5.82516 40.4425 5.56274 39.9986 5.32618 39.5412C5.22334 39.3428 5.1295 39.1411 5.03342 38.9394C4.86147 38.5775 4.98172 38.823 5.01431 38.904C4.96711 38.7865 4.92047 38.6685 4.87664 38.5505C4.7002 38.0785 4.55017 37.5969 4.42767 37.1086C4.35911 36.835 4.29899 36.5591 4.24729 36.282C4.22987 36.1899 4.2147 36.0972 4.1984 36.005C4.08995 35.4021 4.23043 36.4147 4.16918 35.8061C4.11636 35.2779 4.0849 34.7491 4.08827 34.2176C4.0922 33.6877 4.12479 33.1566 4.1911 32.6307C4.13828 33.051 4.2619 32.261 4.28325 32.1564C4.33888 31.88 4.40238 31.6046 4.47487 31.3321C4.6131 30.8134 4.78505 30.3066 4.97947 29.8071C5.09747 29.5025 4.85866 30.0689 4.99464 29.7705C5.06039 29.6256 5.12669 29.4811 5.19693 29.3384C5.30932 29.1086 5.42844 28.8821 5.55375 28.6591C5.83977 28.1511 6.15894 27.6628 6.5062 27.1947C6.48148 27.2284 6.341 27.4026 6.48766 27.2205C6.59105 27.0919 6.6967 26.9649 6.80458 26.8401C7.02317 26.5873 7.25187 26.3445 7.48675 26.1068C8.26332 25.319 8.27288 23.9968 7.48675 23.2112C6.70625 22.4307 5.36944 22.4206 4.59062 23.2112C1.23934 26.6109 -0.486874 31.4231 0.119998 36.1781C0.746538 41.0949 3.62075 45.5419 7.97225 47.9851C12.0776 50.2901 17.1849 50.6632 21.5493 48.8645C26.1273 46.9782 29.6927 43.0324 30.9053 38.1971C32.2488 32.842 30.6625 27.1363 26.7932 23.2112C26.0171 22.4234 24.6753 22.433 23.897 23.2112C23.1081 24.0002 23.1188 25.3168 23.897 26.1068Z" fill="#80CC2B"/>
<path d="M17.7357 35.2879C17.7357 30.4514 17.7357 25.6155 17.7357 20.7797C17.7357 20.0868 17.7357 19.3945 17.7357 18.7017C17.7357 17.6307 16.7939 16.6046 15.688 16.6541C14.5782 16.7035 13.6398 17.5543 13.6398 18.7017C13.6398 23.5376 13.6398 28.374 13.6398 33.2099C13.6398 33.9027 13.6398 34.5956 13.6398 35.2879C13.6398 36.3589 14.5816 37.3849 15.688 37.3355C16.7973 37.2855 17.7357 36.4359 17.7357 35.2879Z" fill="#80CC2B"/>
</svg>
