<svg width="36" height="55" viewBox="0 0 36 55" fill="none" xmlns="http://www.w3.org/2000/svg">
<mask id="mask0_492_1368" style={{ 'mask-type': "alpha" }} maskUnits="userSpaceOnUse" x="17" y="0" width="19" height="18">
<path d="M17.2281 0H36V17.9851H17.2281V0Z" fill="white"/>
</mask>
<g mask="url(#mask0_492_1368)">
<path d="M18.5907 17.5043C19.9256 15.0773 23.4611 9.7218 30.652 5.02333C24.3457 7.93907 19.7237 14.096 18.0163 16.63C16.0934 12.5519 16.2189 4.54369 36.0008 0C34.8378 16.17 23.3186 19.3188 18.5907 17.5043Z" fill="#5D9830"/>
</g>
<path d="M16.1181 17.688C15.3173 16.2319 13.1963 13.0183 8.88201 10.1998C12.6653 11.9489 15.4385 15.6428 16.4632 17.1637C17.6164 14.7166 17.5418 9.91164 5.672 7.18555C6.37004 16.8872 13.2819 18.7769 16.1181 17.688Z" fill="#5D9830"/>
<path d="M26.0175 28.4238C26.3999 28.8111 26.7639 29.213 27.1053 29.6364C27.3341 29.919 26.937 29.4015 27.1481 29.6945C27.2105 29.7802 27.2735 29.8664 27.3353 29.9533C27.5176 30.2133 27.6907 30.4788 27.8565 30.7498C28.1288 31.1958 28.3778 31.6565 28.6011 32.1294C28.6598 32.2548 28.7173 32.3808 28.773 32.5075C28.735 32.4206 28.6347 32.141 28.7858 32.5485C28.8819 32.8066 28.9785 33.063 29.0636 33.3254C29.2226 33.8124 29.356 34.3086 29.4637 34.8102C29.5144 35.0433 29.556 35.2782 29.5976 35.5132C29.6766 35.9494 29.6172 35.619 29.6056 35.5266C29.6264 35.6955 29.6441 35.8643 29.6594 36.0338C29.7524 37.0818 29.7371 38.142 29.6056 39.1869C29.6649 38.7134 29.5438 39.5069 29.5261 39.6023C29.4802 39.8372 29.4288 40.0703 29.3725 40.3022C29.2422 40.835 29.0831 41.3599 28.8947 41.8744C28.8476 42.0035 28.7974 42.132 28.7473 42.2605C28.6188 42.5927 28.8788 41.9754 28.7308 42.3002C28.6304 42.5211 28.5276 42.7413 28.4175 42.9573C28.1642 43.4565 27.8828 43.9423 27.5739 44.4091C27.4173 44.6452 27.2539 44.8771 27.0851 45.1046C27.29 44.8293 26.8936 45.3347 26.8306 45.4087C26.4531 45.8516 26.0499 46.2725 25.6235 46.669C25.4119 46.866 25.1947 47.0562 24.972 47.241C24.8894 47.3095 24.8062 47.378 24.7218 47.4441C24.9952 47.2294 24.7089 47.4502 24.6612 47.4832C24.1962 47.8032 23.7319 48.1164 23.2388 48.3936C22.9959 48.53 22.7494 48.6597 22.4992 48.7821C22.4062 48.8279 22.312 48.8726 22.2177 48.916C22.1664 48.9399 21.7699 49.1136 22.0091 49.0127C22.2483 48.9118 21.8495 49.0733 21.7962 49.0941C21.6996 49.1308 21.6029 49.1669 21.5056 49.2011C21.2157 49.3051 20.9214 49.4 20.6247 49.4856C20.1328 49.6275 19.6336 49.7438 19.1295 49.8343C18.9955 49.8582 18.8609 49.879 18.7263 49.901C18.8169 49.8863 19.1552 49.8563 18.7116 49.9004C18.4412 49.9279 18.1708 49.9524 17.8992 49.9671C17.3902 49.9946 16.8806 49.9964 16.3716 49.972C16.1336 49.961 15.8962 49.9438 15.6595 49.9212C15.5243 49.9083 15.3891 49.8943 15.2539 49.8771C15.7011 49.9328 15.2288 49.8674 15.1401 49.8514C14.0945 49.6716 13.0667 49.381 12.0836 48.9809C12.466 49.1363 11.7508 48.8218 11.6694 48.7821C11.451 48.675 11.2351 48.5624 11.0216 48.4444C10.5291 48.1721 10.0525 47.8717 9.59427 47.5444C9.55267 47.5151 9.19845 47.2532 9.39116 47.4007C9.56491 47.5328 9.28716 47.3156 9.27982 47.3095C9.05835 47.1247 8.83811 46.9388 8.62521 46.7436C8.19574 46.3496 7.78891 45.9318 7.40838 45.4913C7.34965 45.4234 6.87369 44.822 7.08353 45.1046C6.93548 44.9058 6.79232 44.7033 6.65406 44.4971C6.34205 44.0316 6.05635 43.5483 5.79879 43.0503C5.68683 42.8343 5.58467 42.6147 5.48005 42.3951C5.29285 42.0011 5.42377 42.2684 5.45925 42.3565C5.40786 42.2287 5.35708 42.1002 5.30937 41.9717C5.11727 41.4578 4.95392 40.9335 4.82055 40.4019C4.74592 40.104 4.68046 39.8036 4.62417 39.502C4.60521 39.4016 4.58869 39.3007 4.57095 39.2004C4.45287 38.5439 4.60582 39.6463 4.53913 38.9838C4.48163 38.4087 4.44737 37.833 4.45104 37.2543C4.45532 36.6774 4.4908 36.0992 4.56299 35.5266C4.50549 35.9842 4.64008 35.1241 4.66333 35.0103C4.72389 34.7093 4.79302 34.4095 4.87194 34.1128C5.02244 33.5481 5.20965 32.9963 5.42132 32.4524C5.54979 32.1208 5.28979 32.7375 5.43784 32.4127C5.50942 32.2548 5.58161 32.0976 5.65808 31.9422C5.78044 31.692 5.91013 31.4454 6.04656 31.2026C6.35796 30.6495 6.70545 30.1179 7.08353 29.6083C7.05661 29.645 6.90366 29.8346 7.06334 29.6364C7.17591 29.4963 7.29092 29.358 7.40838 29.2222C7.64637 28.9469 7.89536 28.6826 8.15108 28.4238C8.99656 27.5661 9.00696 26.1266 8.15108 25.2713C7.30132 24.4216 5.8459 24.4106 4.99797 25.2713C1.34931 28.9726 -0.530076 34.2119 0.130646 39.3888C0.812781 44.7419 3.94204 49.5835 8.67966 52.2435C13.1493 54.753 18.7098 55.1593 23.4615 53.2009C28.4457 51.1472 32.3274 46.8513 33.6476 41.5869C35.1104 35.7566 33.3833 29.5446 29.1706 25.2713C28.3258 24.4136 26.8648 24.424 26.0175 25.2713C25.1586 26.1303 25.1702 27.5637 26.0175 28.4238Z" fill="#80CC2B"/>
<path d="M19.3094 38.419C19.3094 33.1534 19.3094 27.8884 19.3094 22.6234C19.3094 21.8691 19.3094 21.1154 19.3094 20.3611C19.3094 19.195 18.284 18.0779 17.08 18.1318C15.8718 18.1856 14.8501 19.1118 14.8501 20.3611C14.8501 25.6261 14.8501 30.8917 14.8501 36.1566C14.8501 36.911 14.8501 37.6653 14.8501 38.419C14.8501 39.5851 15.8754 40.7022 17.08 40.6483C18.2877 40.5939 19.3094 39.6689 19.3094 38.419Z" fill="#80CC2B"/>
</svg>
