<?xml version="1.0" encoding="UTF-8"?>
<svg xmlns="http://www.w3.org/2000/svg" xmlns:xlink="http://www.w3.org/1999/xlink" version="1.1" viewBox="0 0 380 100">
  <defs>
    <style>
      .cls-1 {
        fill: #001a83;
      }

      .cls-2 {
        fill: url(#linear-gradient-3);
      }

      .cls-3 {
        fill: url(#linear-gradient-2);
      }

      .cls-4 {
        fill: url(#linear-gradient);
      }
    </style>
    <linearGradient id="linear-gradient" x1="50.74" y1="99.81" x2="57.7" y2="64.42" gradientUnits="userSpaceOnUse">
      <stop offset="0" stop-color="#00a5ff"/>
      <stop offset=".99" stop-color="#0058e9"/>
    </linearGradient>
    <linearGradient id="linear-gradient-2" x1="98.15" y1="26.01" x2="61.6" y2="39.06" xlink:href="#linear-gradient"/>
    <linearGradient id="linear-gradient-3" x1="9.59" y1="32.56" x2="38.31" y2="52.86" xlink:href="#linear-gradient"/>
  </defs>
  <!-- Generator: Adobe Illustrator 28.6.0, SVG Export Plug-In . SVG Version: 1.2.0 Build 709)  -->
  <g>
    <g id="Layer_1">
      <g>
        <path class="cls-1" d="M120.31,73.08c-4.79-4.91-7.18-11.97-7.18-21.18V15.25h9.21v36.28c0,13.81,6.05,20.72,18.14,20.72,5.89,0,10.41-1.7,13.54-5.11,3.13-3.41,4.7-8.61,4.7-15.61V15.25h8.93v36.65c0,9.27-2.39,16.34-7.18,21.23-4.79,4.88-11.48,7.32-20.07,7.32s-15.29-2.45-20.08-7.37Z"/>
        <path class="cls-1" d="M227.4,11.38v68.33h-8.47v-7.74c-1.97,2.7-4.45,4.76-7.46,6.17-3.01,1.41-6.32,2.12-9.94,2.12-4.73,0-8.96-1.04-12.71-3.13-3.75-2.09-6.68-5.02-8.79-8.79-2.12-3.78-3.18-8.12-3.18-13.03s1.06-9.24,3.18-12.98c2.12-3.74,5.05-6.66,8.79-8.75,3.74-2.09,7.98-3.13,12.71-3.13,3.5,0,6.72.66,9.67,1.98,2.95,1.32,5.4,3.27,7.37,5.85V11.38h8.84ZM210.64,70.36c2.52-1.44,4.48-3.47,5.89-6.08,1.41-2.61,2.12-5.6,2.12-8.98s-.71-6.37-2.12-8.98c-1.41-2.61-3.38-4.62-5.89-6.03-2.52-1.41-5.31-2.12-8.38-2.12s-5.94.71-8.42,2.12c-2.49,1.41-4.45,3.42-5.89,6.03-1.44,2.61-2.16,5.6-2.16,8.98s.72,6.37,2.16,8.98c1.44,2.61,3.41,4.64,5.89,6.08,2.48,1.44,5.29,2.16,8.42,2.16s5.86-.72,8.38-2.16Z"/>
        <path class="cls-1" d="M239.01,40.71c2.09-3.9,4.96-6.92,8.61-9.07,3.65-2.15,7.72-3.22,12.2-3.22s8.26.95,11.51,2.85c3.25,1.9,5.68,4.3,7.27,7.18v-9.21h8.47v50.46h-8.47v-9.39c-1.66,2.95-4.13,5.39-7.41,7.32-3.29,1.93-7.11,2.9-11.47,2.9s-8.53-1.1-12.15-3.32c-3.62-2.21-6.48-5.31-8.56-9.3-2.09-3.99-3.13-8.53-3.13-13.63s1.04-9.68,3.13-13.58ZM276.3,44.44c-1.54-2.82-3.61-4.99-6.21-6.49-2.61-1.5-5.48-2.26-8.61-2.26s-5.99.74-8.56,2.21c-2.58,1.47-4.64,3.62-6.17,6.45-1.54,2.82-2.3,6.14-2.3,9.94s.77,7.23,2.3,10.08c1.53,2.85,3.59,5.03,6.17,6.54,2.58,1.51,5.43,2.26,8.56,2.26s6-.75,8.61-2.26c2.61-1.5,4.68-3.68,6.21-6.54,1.53-2.85,2.3-6.18,2.3-9.99s-.77-7.12-2.3-9.94Z"/>
        <path class="cls-1" d="M326.12,76.85c-1.29,1.11-2.89,1.95-4.79,2.53-1.9.58-3.87.88-5.89.88-4.91,0-8.72-1.32-11.42-3.96-2.7-2.64-4.05-6.41-4.05-11.33v-26.8h-8.29v-7.27h8.29v-10.68h8.84v10.68h14v7.27h-14v26.43c0,2.64.66,4.67,1.98,6.08,1.32,1.41,3.21,2.12,5.66,2.12,2.7,0,5-.77,6.91-2.3l2.76,6.35Z"/>
        <path class="cls-1" d="M331.64,40.71c2.09-3.9,4.96-6.92,8.61-9.07,3.65-2.15,7.72-3.22,12.2-3.22s8.26.95,11.51,2.85c3.25,1.9,5.68,4.3,7.27,7.18v-9.21h8.47v50.46h-8.47v-9.39c-1.66,2.95-4.13,5.39-7.41,7.32-3.29,1.93-7.11,2.9-11.47,2.9s-8.53-1.1-12.15-3.32c-3.62-2.21-6.48-5.31-8.56-9.3-2.09-3.99-3.13-8.53-3.13-13.63s1.04-9.68,3.13-13.58ZM368.94,44.44c-1.54-2.82-3.61-4.99-6.21-6.49-2.61-1.5-5.48-2.26-8.61-2.26s-5.99.74-8.56,2.21c-2.58,1.47-4.64,3.62-6.17,6.45-1.54,2.82-2.3,6.14-2.3,9.94s.77,7.23,2.3,10.08c1.53,2.85,3.59,5.03,6.17,6.54,2.58,1.51,5.43,2.26,8.56,2.26s6-.75,8.61-2.26c2.61-1.5,4.68-3.68,6.21-6.54,1.53-2.85,2.3-6.18,2.3-9.99s-.77-7.12-2.3-9.94Z"/>
      </g>
      <g>
        <path class="cls-4" d="M58.66,100c-21.56-.14-39.46-13.63-45.07-32.72-.23-.78-.51-1.53.25-2.22,5.93-5.36,12.65-8.5,20.86-7.23,5.05.78,8.8,3.71,11.94,7.55,2.47,3.04,4.3,6.51,6.39,9.8,5.01,7.9,12.16,12.1,21.55,12.41,1.19.04,2.23-.24,3.25-.89,7.4-4.74,12.66-11.2,15.73-19.45.4-1.07.71-2.21,1.8-2.84,1.49-.87,2.95-.88,4.34.21,1.39,1.09,1.7,2.54,1.17,4.17-1.53,4.74-3.82,9.1-6.89,13.02-9.39,11.99-21.84,17.82-35.3,18.18ZM61,92.07c-.23-.14-.45-.3-.69-.42-5.65-2.8-10.08-6.93-13.42-12.26-1.7-2.72-3.31-5.52-5.16-8.14-4.79-6.78-10.82-8.1-18.15-4.22-1.47.78-1.83,1.52-1.08,3.09,3.56,7.4,8.74,13.3,15.89,17.37,6.97,3.97,14.46,5.64,22.59,4.57Z"/>
        <path class="cls-3" d="M49.22,0c23.69.04,43.29,17.98,45.45,41.8,1.2,13.27-2.96,24.87-11.7,34.88-1.19,1.36-2.24,1.67-4,1-6.71-2.56-12.1-6.54-15.03-13.3-1.87-4.32-1.65-8.72-.28-13.13,1.08-3.48,2.84-6.64,4.61-9.79,2.12-3.77,3.94-7.64,4.38-12.04.58-5.68-.66-10.93-3.5-15.86-.49-.86-1.29-1.3-2.1-1.72-7.52-3.89-15.46-5.31-23.85-4.02-.62.1-1.24.22-1.87.3-2.1.27-3.86-.91-4.26-2.85-.4-1.96.68-3.81,2.75-4.33C42.45.3,45.14.03,47.85,0c.46,0,.92,0,1.38,0ZM80.36,23.93c-.03,3.77-.32,7.41-1.2,11-1.12,4.53-3.52,8.46-5.7,12.49-1.42,2.63-2.8,5.31-3.24,8.3-.89,6.01,2.34,9.85,6.96,12.96,1.48,1,2.3.76,3.27-.69,7.51-11.16,9.06-23.08,4.6-35.75-1.06-3.02-2.57-5.82-4.7-8.31Z"/>
        <path class="cls-2" d="M45.52,11.39c4.26.02,7.77.53,11.26,1.3.86.19,1.48.54,1.67,1.47,1.41,6.87,1.06,13.49-2.81,19.59-3.79,5.99-9.66,8.1-16.35,8.76-4.8.47-9.66-.14-14.41.94-7.29,1.66-12.74,5.83-16.58,12.19-.36.59-.61,1.2-.61,1.94.07,8.88,2.91,16.77,8.45,23.7.36.45.74.88,1.09,1.34,1.34,1.8,1.22,4.02-.27,5.28-1.6,1.35-4.03,1.09-5.53-.64-5.59-6.45-9.2-13.89-10.5-22.3-2.39-15.42,1.8-28.94,12.71-40.1,7.6-7.77,17.04-12.1,27.92-13.16,1.54-.15,3.08-.33,3.95-.29ZM11.31,40.91c.11.1.22.19.33.29.29-.17.58-.33.86-.51,4.35-2.72,9.01-4.58,14.16-4.97,3.89-.29,7.79-.33,11.68-.58,8.5-.55,13.22-4.7,13.49-14.32.03-.99-.19-1.7-1.36-1.76-1.78-.08-3.56-.34-5.32-.27-11.36.48-20.89,4.9-28.37,13.51-2.25,2.59-4.17,5.42-5.48,8.61Z"/>
      </g>
    </g>
  </g>
</svg>